<?xml version="1.0" standalone="no"?>
<!DOCTYPE svg PUBLIC "-//W3C//DTD SVG 20010904//EN"
 "http://www.w3.org/TR/2001/REC-SVG-20010904/DTD/svg10.dtd">
<svg version="1.0" xmlns="http://www.w3.org/2000/svg"
 width="1430.000000pt" height="1430.000000pt" viewBox="0 0 1430.000000 1430.000000"
 preserveAspectRatio="xMidYMid meet">
<metadata>
Created by potrace 1.11, written by Peter Selinger 2001-2013
</metadata>
<g transform="translate(0.000000,1430.000000) scale(0.100000,-0.100000)"
fill="#000000" stroke="none">
<path d="M6748 14295 c-2 -1 -55 -6 -119 -9 -63 -4 -131 -9 -150 -11 -18 -2
-65 -6 -104 -10 -38 -3 -86 -8 -105 -11 -19 -3 -48 -7 -65 -9 -16 -2 -52 -7
-80 -10 -27 -3 -59 -8 -71 -10 -12 -3 -39 -7 -60 -10 -62 -9 -240 -42 -324
-60 -18 -4 -86 -19 -90 -20 -3 0 -23 -5 -45 -10 -50 -11 -46 -10 -72 -18 -48
-17 -89 -130 -109 -306 -3 -31 -8 -65 -10 -75 -26 -137 -25 -1203 1 -1581 2
-33 7 -114 10 -180 7 -151 14 -263 20 -340 3 -33 7 -94 10 -135 7 -102 16
-228 20 -270 2 -19 6 -87 10 -150 4 -63 8 -135 10 -160 27 -368 27 -1111 0
-1192 -2 -7 -6 -31 -9 -53 -10 -80 -47 -176 -82 -215 -34 -38 -113 -84 -164
-96 -45 -11 -215 -12 -265 -3 -28 5 -60 11 -73 14 -56 10 -221 70 -316 114
-417 195 -851 558 -1122 937 -311 435 -519 910 -805 1834 -44 143 -89 253
-108 264 -32 20 -524 -496 -784 -824 -359 -452 -690 -1004 -926 -1545 -34 -77
-66 -148 -71 -157 -6 -10 -10 -23 -10 -28 0 -6 -8 -30 -18 -53 -53 -120 -96
-242 -167 -467 -31 -96 -62 -195 -70 -220 -52 -164 -159 -657 -189 -870 -44
-316 -45 -330 -52 -420 -3 -41 -7 -88 -9 -105 -26 -194 -26 -956 0 -1165 2
-19 7 -69 10 -110 8 -95 12 -134 19 -190 4 -25 9 -63 12 -85 9 -67 43 -288 49
-315 5 -27 23 -123 31 -167 2 -16 7 -34 10 -42 2 -8 7 -30 10 -50 5 -33 49
-216 94 -386 78 -305 254 -799 380 -1070 23 -50 51 -110 62 -135 22 -47 86
-179 106 -217 7 -13 16 -31 20 -40 5 -10 23 -44 40 -75 18 -32 46 -84 63 -115
58 -105 235 -397 266 -438 5 -5 14 -22 22 -37 8 -16 18 -28 23 -28 4 0 8 -4 8
-9 0 -8 66 -105 148 -219 212 -294 483 -607 756 -877 162 -160 182 -179 328
-306 51 -45 107 -93 123 -108 43 -37 286 -227 375 -292 126 -93 447 -302 605
-395 190 -111 568 -301 750 -378 77 -32 154 -64 170 -72 167 -74 576 -208 867
-284 123 -31 118 -30 262 -60 54 -11 101 -22 105 -24 3 -2 27 -7 53 -10 26 -4
53 -8 60 -11 7 -2 29 -6 48 -9 19 -3 78 -12 130 -20 52 -8 118 -18 145 -21 28
-3 64 -7 80 -10 43 -6 109 -13 190 -20 39 -3 90 -8 115 -10 293 -30 861 -21
1215 19 17 2 62 7 100 11 39 4 77 9 86 10 9 2 38 6 65 10 27 3 56 7 64 9 8 1
38 6 65 10 28 4 61 10 75 12 253 45 439 90 461 110 34 31 66 129 84 254 3 25
8 56 10 70 4 28 14 146 21 265 6 100 6 779 0 940 -3 66 -7 174 -10 240 -4 66
-8 167 -11 225 -10 207 -18 353 -30 520 -3 36 -7 97 -10 135 -4 67 -8 124 -20
280 -3 39 -8 106 -11 150 -3 44 -7 107 -9 140 -25 406 -26 989 -1 1125 2 14 7
44 10 68 19 148 74 245 166 292 215 108 592 19 1005 -238 77 -48 255 -173 292
-206 7 -6 18 -15 25 -21 78 -60 262 -234 364 -346 159 -174 375 -508 511 -789
155 -322 242 -555 472 -1275 61 -189 90 -255 113 -255 15 0 397 384 507 510
46 52 96 109 110 125 38 42 202 250 292 370 138 183 356 519 466 715 65 115
88 159 154 290 214 420 370 817 499 1265 57 201 137 533 154 640 2 17 9 53 14
80 6 28 13 70 17 95 3 25 8 52 10 60 2 8 7 39 10 69 4 30 8 62 10 72 2 10 6
45 10 78 3 33 8 69 10 81 2 11 7 56 10 98 4 42 8 88 10 102 2 14 7 75 11 135
3 61 8 133 9 160 6 76 6 548 0 650 -12 235 -17 305 -30 415 -2 19 -7 60 -10
90 -3 30 -8 73 -11 95 -6 42 -7 48 -19 134 -3 30 -9 63 -11 75 -2 12 -7 41
-10 66 -3 25 -8 47 -9 50 -2 3 -6 26 -10 50 -23 165 -172 782 -212 880 -3 8
-7 20 -8 26 -18 81 -211 596 -285 759 -194 428 -368 747 -590 1080 -336 505
-695 927 -1145 1344 -214 199 -665 554 -833 656 -9 6 -62 40 -118 77 -98 64
-351 218 -358 218 -3 0 -46 24 -98 53 -288 163 -726 355 -1086 478 -120 41
-375 118 -442 135 -8 2 -49 12 -90 24 -61 16 -227 54 -335 76 -53 10 -72 14
-100 19 -16 3 -41 7 -55 10 -74 14 -117 21 -190 31 -19 2 -46 6 -60 9 -14 2
-50 7 -80 10 -30 4 -66 8 -80 10 -14 3 -54 7 -90 10 -36 3 -90 8 -120 11 -30
3 -82 7 -115 10 -67 5 -771 14 -777 9z"/>
</g>
</svg>
